<?xml version="1.0" standalone="no"?>
<!DOCTYPE svg PUBLIC "-//W3C//DTD SVG 20010904//EN"
 "http://www.w3.org/TR/2001/REC-SVG-20010904/DTD/svg10.dtd">
<svg version="1.0" xmlns="http://www.w3.org/2000/svg"
 width="165.000000pt" height="165.000000pt" viewBox="0 0 165.000000 165.000000"
 preserveAspectRatio="xMidYMid meet">

<g transform="translate(0.000000,165.000000) scale(0.100000,-0.100000)"
fill="#000000" stroke="none">
<path d="M603 1068 c-2 -5 23 -8 56 -8 l61 0 0 -164 0 -163 43 -17 c53 -20 62
-20 120 0 l47 16 0 164 0 164 62 0 c34 0 59 3 56 6 -9 9 -439 10 -445 2z m262
-74 c26 -29 32 -44 15 -44 -6 0 -16 11 -22 25 -12 27 -45 34 -66 13 -16 -16
-16 -180 0 -196 20 -20 58 -14 68 11 10 22 10 22 7 -3 -3 -37 -50 -51 -79 -23
-19 19 -21 32 -20 115 2 81 5 95 23 111 29 24 46 22 74 -9z"/>
<path d="M395 600 c-3 -5 -1 -10 4 -10 6 0 11 5 11 10 0 6 -2 10 -4 10 -3 0
-8 -4 -11 -10z"/>
<path d="M525 600 c-16 -7 -17 -9 -3 -9 9 -1 20 4 23 9 7 11 7 11 -20 0z"/>
<path d="M1320 600 c0 -6 7 -10 15 -10 8 0 15 2 15 4 0 2 -7 6 -15 10 -8 3
-15 1 -15 -4z"/>
<path d="M438 593 c7 -3 16 -2 19 1 4 3 -2 6 -13 5 -11 0 -14 -3 -6 -6z"/>
</g>
</svg>
